<?xml version="1.0" encoding="utf-8"?>
<!-- Generator: Adobe Illustrator 25.2.3, SVG Export Plug-In . SVG Version: 6.00 Build 0)  -->
<svg version="1.1" id="Layer_1" xmlns="http://www.w3.org/2000/svg" xmlns:xlink="http://www.w3.org/1999/xlink" x="0px" y="0px"
	 viewBox="0 0 411.1 266.3" style="enable-background:new 0 0 411.1 266.3;" xml:space="preserve">
<style type="text/css">
	.st0{fill:#801328;}
</style>
<g>
	<g transform="translate(-1508.861 -8196.49)">
		<path class="st0" d="M1646,8396.2c-37.9,0-68.6-29.8-68.6-66.6s30.7-66.6,68.6-66.6s68.6,29.8,68.6,66.6
			S1683.9,8396.2,1646,8396.2 M1920,8263.1L1920,8263.1l0-66.6c-73.4,0-133.4,55.9-137.1,126.3c-3.7-70.3-63.6-126.2-137-126.2
			c-75.7,0-137.1,59.6-137.1,133.1s61.4,133.1,137.1,133.1c73.4,0,133.3-55.9,137-126.2c3.7,70.4,63.6,126.3,137.1,126.3v-66.6h0
			c-37.8,0-68.6-29.9-68.6-66.6S1882.2,8263.1,1920,8263.1"/>
	</g>
</g>
</svg>
