<svg xmlns="http://www.w3.org/2000/svg" viewBox="0 0 411.139 266.301"><defs><clipPath id="a"><path transform="translate(1508.861 8196.49)" fill="#fff" d="M0 0h411.139v266.3H0z"/></clipPath></defs><g transform="translate(-1508.861 -8196.49)" clip-path="url(#a)"><path d="M1645.989 8396.213c-37.893 0-68.61-29.806-68.61-66.574s30.717-66.571 68.61-66.571 68.62 29.8 68.62 66.571-30.726 66.574-68.62 66.574m274.005-133.146h.006v-66.576c-73.431 0-133.383 55.949-137.057 126.307-3.667-70.3-63.579-126.211-136.956-126.211-75.73 0-137.128 59.57-137.128 133.052s61.4 133.054 137.128 133.054c73.376 0 133.289-55.908 136.956-126.21 3.674 70.357 63.626 126.309 137.057 126.309v-66.578h-.016c-37.83-.006-68.6-29.87-68.6-66.572s30.782-66.573 68.612-66.573" fill="#fff"/></g></svg>