<svg id="Layer_1" data-name="Layer 1" xmlns="http://www.w3.org/2000/svg" viewBox="0 0 1000 1000"><defs><style>.cls-1{fill:#801328;}.cls-2{fill:#fff;}</style></defs><circle id="OC_circle" data-name="OC circle" class="cls-1" cx="499.6" cy="500.5" r="500"/><path id="OC" class="cls-2" d="M372,621.07A120.57,120.57,0,1,1,492.54,500.5,120.5,120.5,0,0,1,372,621.07M854.23,379.93h0V259.37c-131.08,0-237.52,104.4-241.29,234.22-3.76-129.82-110.2-234.22-241-234.22-133.28,0-241.29,108-241.29,241.29S238.69,741.94,372,741.94c130.77,0,237.52-104.08,241-234.22,3.77,130.14,110.21,234.22,241.29,234.22h0V621.38h0c-66.72,0-120.56-54.32-120.56-120.57A120.36,120.36,0,0,1,854.23,379.93"/></svg>